{
	"asset":{
		"generator":"Khronos glTF Blender I/O v3.6.27",
		"version":"2.0"
	},
	"scene":0,
	"scenes":[
		{
			"name":"Scene",
			"nodes":[
				0
			]
		}
	],
	"nodes":[
		{
			"mesh":0,
			"name":"Book.002",
			"translation":[
				0,
				-0.006058931350708008,
				0
			]
		}
	],
	"meshes":[
		{
			"name":"Plane.005",
			"primitives":[
				{
					"attributes":{
						"POSITION":0,
						"NORMAL":1,
						"TEXCOORD_0":2
					},
					"indices":3
				}
			]
		}
	],
	"accessors":[
		{
			"bufferView":0,
			"componentType":5126,
			"count":2394,
			"max":[
				1.4893938302993774,
				0.14484305679798126,
				1.0277562141418457
			],
			"min":[
				-1.4893938302993774,
				0.01150539331138134,
				-1.0277562141418457
			],
			"type":"VEC3"
		},
		{
			"bufferView":1,
			"componentType":5126,
			"count":2394,
			"type":"VEC3"
		},
		{
			"bufferView":2,
			"componentType":5126,
			"count":2394,
			"type":"VEC2"
		},
		{
			"bufferView":3,
			"componentType":5123,
			"count":3366,
			"type":"SCALAR"
		}
	],
	"bufferViews":[
		{
			"buffer":0,
			"byteLength":28728,
			"byteOffset":0,
			"target":34962
		},
		{
			"buffer":0,
			"byteLength":28728,
			"byteOffset":28728,
			"target":34962
		},
		{
			"buffer":0,
			"byteLength":19152,
			"byteOffset":57456,
			"target":34962
		},
		{
			"buffer":0,
			"byteLength":6732,
			"byteOffset":76608,
			"target":34963
		}
	],
	"buffers":[
		{
			"byteLength":83340,
			"uri":"data:application/octet-stream;base64,"
		}
	]
}
