{
	"asset":{
		"generator":"Khronos glTF Blender I/O v3.6.27",
		"version":"2.0"
	},
	"scene":0,
	"scenes":[
		{
			"name":"Scene",
			"nodes":[
				0
			]
		}
	],
	"nodes":[
		{
			"mesh":0,
			"name":"Book"
		}
	],
	"materials":[
		{
			"doubleSided":true,
			"name":"Material.001",
			"pbrMetallicRoughness":{
				"baseColorFactor":[
					0.023650486022233963,
					0.023650486022233963,
					0.023650486022233963,
					1
				],
				"metallicFactor":0,
				"roughnessFactor":0.5
			}
		},
		{
			"doubleSided":true,
			"name":"Material.002",
			"pbrMetallicRoughness":{
				"baseColorTexture":{
					"index":0
				},
				"metallicFactor":0,
				"roughnessFactor":0.5
			}
		}
	],
	"meshes":[
		{
			"name":"Plane.001",
			"primitives":[
				{
					"attributes":{
						"POSITION":0,
						"NORMAL":1,
						"TEXCOORD_0":2
					},
					"indices":3,
					"material":0
				},
				{
					"attributes":{
						"POSITION":4,
						"NORMAL":5,
						"TEXCOORD_0":6
					},
					"indices":7,
					"material":1
				}
			]
		}
	],
	"textures":[
		{
			"sampler":0,
			"source":0
		}
	],
	"images":[
		{
			"bufferView":8,
			"mimeType":"image/png",
			"name":"Paper"
		}
	],
	"accessors":[
		{
			"bufferView":0,
			"componentType":5126,
			"count":124,
			"max":[
				1.4893938302993774,
				0.0633280947804451,
				1.0277562141418457
			],
			"min":[
				-1.4893938302993774,
				0.01150539331138134,
				-1.0277562141418457
			],
			"type":"VEC3"
		},
		{
			"bufferView":1,
			"componentType":5126,
			"count":124,
			"type":"VEC3"
		},
		{
			"bufferView":2,
			"componentType":5126,
			"count":124,
			"type":"VEC2"
		},
		{
			"bufferView":3,
			"componentType":5123,
			"count":738,
			"type":"SCALAR"
		},
		{
			"bufferView":4,
			"componentType":5126,
			"count":1700,
			"max":[
				1.463528037071228,
				0.14484305679798126,
				1.0006121397018433
			],
			"min":[
				-1.463528037071228,
				0.03549550473690033,
				-1
			],
			"type":"VEC3"
		},
		{
			"bufferView":5,
			"componentType":5126,
			"count":1700,
			"type":"VEC3"
		},
		{
			"bufferView":6,
			"componentType":5126,
			"count":1700,
			"type":"VEC2"
		},
		{
			"bufferView":7,
			"componentType":5123,
			"count":10062,
			"type":"SCALAR"
		}
	],
	"bufferViews":[
		{
			"buffer":0,
			"byteLength":1488,
			"byteOffset":0,
			"target":34962
		},
		{
			"buffer":0,
			"byteLength":1488,
			"byteOffset":1488,
			"target":34962
		},
		{
			"buffer":0,
			"byteLength":992,
			"byteOffset":2976,
			"target":34962
		},
		{
			"buffer":0,
			"byteLength":1476,
			"byteOffset":3968,
			"target":34963
		},
		{
			"buffer":0,
			"byteLength":20400,
			"byteOffset":5444,
			"target":34962
		},
		{
			"buffer":0,
			"byteLength":20400,
			"byteOffset":25844,
			"target":34962
		},
		{
			"buffer":0,
			"byteLength":13600,
			"byteOffset":46244,
			"target":34962
		},
		{
			"buffer":0,
			"byteLength":20124,
			"byteOffset":59844,
			"target":34963
		},
		{
			"buffer":0,
			"byteLength":20712,
			"byteOffset":79968
		}
	],
	"samplers":[
		{
			"magFilter":9729,
			"minFilter":9987
		}
	],
	"buffers":[
		{
			"byteLength":100680,
			"uri":"data:application/octet-stream;base64,"
		}
	]
}
