{
	"asset":{
		"generator":"Khronos glTF Blender I/O v3.6.27",
		"version":"2.0"
	},
	"scene":0,
	"scenes":[
		{
			"name":"Scene",
			"nodes":[
				0
			]
		}
	],
	"nodes":[
		{
			"mesh":0,
			"name":"Table"
		}
	],
	"materials":[
		{
			"alphaMode":"BLEND",
			"doubleSided":true,
			"name":"Poliigon_WoodVeneerOak_7760_2K",
			"normalTexture":{
				"index":0
			},
			"pbrMetallicRoughness":{
				"baseColorTexture":{
					"index":1
				},
				"metallicRoughnessTexture":{
					"index":2
				}
			}
		}
	],
	"meshes":[
		{
			"name":"Plane.011",
			"primitives":[
				{
					"attributes":{
						"POSITION":0,
						"NORMAL":1,
						"TEXCOORD_0":2
					},
					"indices":3,
					"material":0
				}
			]
		}
	],
	"textures":[
		{
			"sampler":0,
			"source":0
		},
		{
			"sampler":0,
			"source":1
		},
		{
			"sampler":0,
			"source":2
		}
	],
	"images":[
		{
			"bufferView":4,
			"mimeType":"image/png",
			"name":"Poliigon_WoodVeneerOak_7760_Normal"
		},
		{
			"bufferView":5,
			"mimeType":"image/jpeg",
			"name":"Poliigon_WoodVeneerOak_7760_BaseColor"
		},
		{
			"bufferView":6,
			"mimeType":"image/png",
			"name":"Poliigon_WoodVeneerOak_7760_Metallic_2K_jpg-Poliigon_WoodVeneerOak_7760_Roughness_2K_jpg"
		}
	],
	"accessors":[
		{
			"bufferView":0,
			"componentType":5126,
			"count":352,
			"max":[
				5.217616558074951,
				0.014759133569896221,
				2.5836429595947266
			],
			"min":[
				-5.217616558074951,
				-0.03679041191935539,
				-2.5836429595947266
			],
			"type":"VEC3"
		},
		{
			"bufferView":1,
			"componentType":5126,
			"count":352,
			"type":"VEC3"
		},
		{
			"bufferView":2,
			"componentType":5126,
			"count":352,
			"type":"VEC2"
		},
		{
			"bufferView":3,
			"componentType":5123,
			"count":708,
			"type":"SCALAR"
		}
	],
	"bufferViews":[
		{
			"buffer":0,
			"byteLength":4224,
			"byteOffset":0,
			"target":34962
		},
		{
			"buffer":0,
			"byteLength":4224,
			"byteOffset":4224,
			"target":34962
		},
		{
			"buffer":0,
			"byteLength":2816,
			"byteOffset":8448,
			"target":34962
		},
		{
			"buffer":0,
			"byteLength":1416,
			"byteOffset":11264,
			"target":34963
		},
		{
			"buffer":0,
			"byteLength":1707189,
			"byteOffset":12680
		},
		{
			"buffer":0,
			"byteLength":447422,
			"byteOffset":1719872
		},
		{
			"buffer":0,
			"byteLength":892777,
			"byteOffset":2167296
		}
	],
	"samplers":[
		{
			"magFilter":9729,
			"minFilter":9987
		}
	],
	"buffers":[
		{
			"byteLength":3060076,
			"uri":"data:application/octet-stream;base64,"
		}
	]
}
